<?xml version="1.0" encoding="UTF-8" standalone="no"?>
<svg
   viewBox="0 0 512 512"
   width="512"
   height="512"
   version="1.1"
   id="svg16"
   xmlns="http://www.w3.org/2000/svg"
   xmlns:svg="http://www.w3.org/2000/svg">
  <defs
     id="defs16" />
  <!-- Dark background -->
  <rect
     width="512"
     height="512"
     fill="#0a0a0f"
     id="rect1"
     x="0.99948734"
     y="9.0216645e-07"
     style="stroke-width:1.77777" />
  <!-- Icon: top=52.5, perfectly centred with all content -->
  <g
     transform="matrix(1.5737002,0,0,1.5737002,168.08352,88.618827)"
     id="g2">
    <path
       d="M 50,5 C 20,5 10,30 10,45 v 5 q 15,-8 30,5 10,8 20,0 15,-13 30,-5 V 45 C 90,30 80,5 50,5 Z"
       fill="#f5a623"
       id="path1" />
    <path
       d="M 50,115 C 30,115 10,100 10,85 V 66 q 15,-8 30,5 10,8 20,0 15,-13 30,-5 v 19 c 0,15 -20,30 -40,30 z"
       fill="#ffffff"
       stroke="#f5a623"
       stroke-width="3"
       id="path2" />
  </g>
  <!-- Snap — white, 30px, y=204.5 -->
  <path
     fill="#ffffff"
     d="m 113.18634,335.04839 h 9.54801 q 0.20984,2.09846 1.41646,3.20016 1.20662,1.10169 3.1477,1.10169 1.99354,0 3.14769,-0.97054 1.15416,-0.97054 1.15416,-2.59685 0,-1.364 -0.91808,-2.25585 -0.91808,-0.89184 -2.25585,-1.46892 -1.33777,-0.57708 -3.80346,-1.31154 -3.56739,-1.10169 -5.82324,-2.20339 -2.25585,-1.10169 -3.88216,-3.25262 -1.62631,-2.15092 -1.62631,-5.61338 0,-5.14124 3.72478,-8.05286 3.72477,-2.91162 9.70539,-2.91162 6.08554,0 9.81031,2.91162 3.72478,2.91162 3.98709,8.10532 h -9.7054 q -0.10492,-1.88862 -1.28531,-2.91162 -1.18038,-1.023 -3.12146,-1.023 -1.62631,0 -2.62308,0.89185 -0.99677,0.89184 -0.99677,2.57061 0,1.7837 1.67877,2.78047 1.67877,0.99677 5.24616,2.15092 3.56739,1.20662 5.797,2.30831 2.22962,1.10169 3.85593,3.20016 1.62631,2.09846 1.62631,5.40354 0,3.1477 -1.60008,5.71831 -1.60008,2.57062 -4.64285,4.09201 -3.04277,1.52138 -7.18724,1.52138 -4.03954,0 -7.23969,-1.31154 -3.20016,-1.31154 -5.11501,-3.88215 -1.91485,-2.57062 -2.01977,-6.19047 z"
     id="path3"
     style="stroke-width:0.0524616" />
  <path
     fill="#ffffff"
     d="m 175.61562,328.96285 v 17.10247 h -8.91846 v -15.89586 q 0,-2.93785 -1.52139,-4.56416 -1.52139,-1.6263 -4.092,-1.6263 -2.57062,0 -4.09201,1.6263 -1.52138,1.62631 -1.52138,4.56416 v 15.89586 h -8.97093 v -29.27356 h 8.97093 v 3.88216 q 1.364,-1.94108 3.67231,-3.06901 2.30831,-1.12792 5.19369,-1.12792 5.14124,0 8.21024,3.33131 3.069,3.33131 3.069,9.15455 z"
     id="path4"
     style="stroke-width:0.0524616" />
  <path
     fill="#ffffff"
     d="m 192.98041,316.37207 q 3.09523,0 5.42977,1.25907 2.33454,1.25908 3.59362,3.30508 v -4.14446 h 8.97093 v 29.27356 h -8.97093 v -4.14446 q -1.31154,2.046 -3.64608,3.30508 -2.33454,1.25907 -5.42977,1.25907 -3.56739,0 -6.50524,-1.86238 -2.93785,-1.86239 -4.64285,-5.29862 -1.705,-3.43624 -1.705,-7.94793 0,-4.5117 1.705,-7.9217 1.705,-3.41 4.64285,-5.24616 2.93785,-1.83615 6.5577,-1.83615 z m 2.62308,7.81677 q -2.67554,0 -4.53793,1.91485 -1.86239,1.91485 -1.86239,5.27239 0,3.35754 1.86239,5.32485 1.86239,1.96731 4.53793,1.96731 2.67554,0 4.53793,-1.94108 1.86238,-1.94108 1.86238,-5.29862 0,-3.35754 -1.86238,-5.29862 -1.86239,-1.94108 -4.53793,-1.94108 z"
     id="path5"
     style="stroke-width:0.0524616" />
  <path
     fill="#ffffff"
     d="m 235.47429,316.37207 q 3.61985,0 6.5577,1.83615 2.93785,1.83616 4.64285,5.24616 1.705,3.41 1.705,7.9217 0,4.51169 -1.705,7.94793 -1.705,3.43623 -4.64285,5.29862 -2.93785,1.86238 -6.5577,1.86238 -3.04277,0 -5.37731,-1.25907 -2.33454,-1.25908 -3.64608,-3.25262 v 18.04678 h -8.97093 v -43.22834 h 8.97093 v 4.14446 q 1.31154,-2.046 3.61985,-3.30508 2.30831,-1.25907 5.40354,-1.25907 z m -2.67554,7.81677 q -2.67554,0 -4.53793,1.94108 -1.86238,1.94108 -1.86238,5.29862 0,3.35754 1.86238,5.29862 1.86239,1.94108 4.53793,1.94108 2.67554,0 4.56416,-1.96731 1.88862,-1.96731 1.88862,-5.32485 0,-3.35754 -1.86239,-5.27239 -1.86239,-1.91485 -4.59039,-1.91485 z"
     id="path6"
     style="stroke-width:0.0524616" />
  <path
     fill="#f5a623"
     d="m 252.05215,335.04839 h 9.54801 q 0.20985,2.09846 1.41646,3.20016 1.20662,1.10169 3.1477,1.10169 1.99354,0 3.14769,-0.97054 1.15416,-0.97054 1.15416,-2.59685 0,-1.364 -0.91808,-2.25585 -0.91808,-0.89184 -2.25585,-1.46892 -1.33777,-0.57708 -3.80346,-1.31154 -3.56739,-1.10169 -5.82324,-2.20339 -2.25585,-1.10169 -3.88216,-3.25262 -1.6263,-2.15092 -1.6263,-5.61338 0,-5.14124 3.72477,-8.05286 3.72477,-2.91162 9.70539,-2.91162 6.08554,0 9.81032,2.91162 3.72477,2.91162 3.98708,8.10532 h -9.7054 q -0.10492,-1.88862 -1.2853,-2.91162 -1.18039,-1.023 -3.12147,-1.023 -1.62631,0 -2.62308,0.89185 -0.99677,0.89184 -0.99677,2.57061 0,1.7837 1.67877,2.78047 1.67877,0.99677 5.24616,2.15092 3.56739,1.20662 5.79701,2.30831 2.22961,1.10169 3.85592,3.20016 1.62631,2.09846 1.62631,5.40354 0,3.1477 -1.60008,5.71831 -1.60007,2.57062 -4.64285,4.09201 -3.04277,1.52138 -7.18723,1.52138 -4.03955,0 -7.2397,-1.31154 -3.20016,-1.31154 -5.11501,-3.88215 -1.91484,-2.57062 -2.01977,-6.19047 z"
     id="path7"
     style="stroke-width:0.0524616" />
  <path
     fill="#f5a623"
     d="m 301.68081,338.45839 v 7.60693 h -4.56416 q -4.87892,0 -7.60693,-2.387 -2.728,-2.387 -2.728,-7.79055 V 324.2413 h -3.56739 v -7.44954 h 3.56739 v -7.13478 h 8.97093 v 7.13478 h 5.8757 v 7.44954 h -5.8757 v 11.7514 q 0,1.31154 0.62954,1.88861 0.62954,0.57708 2.09846,0.57708 z"
     id="path8"
     style="stroke-width:0.0524616" />
  <path
     fill="#f5a623"
     d="m 317.78652,316.37207 q 3.09523,0 5.42977,1.25907 2.33454,1.25908 3.59362,3.30508 v -4.14446 h 8.97093 v 29.27356 h -8.97093 v -4.14446 q -1.31154,2.046 -3.64608,3.30508 -2.33454,1.25907 -5.42977,1.25907 -3.56739,0 -6.50524,-1.86238 -2.93785,-1.86239 -4.64285,-5.29862 -1.705,-3.43624 -1.705,-7.94793 0,-4.5117 1.705,-7.9217 1.705,-3.41 4.64285,-5.24616 2.93785,-1.83615 6.5577,-1.83615 z m 2.62308,7.81677 q -2.67554,0 -4.53793,1.91485 -1.86239,1.91485 -1.86239,5.27239 0,3.35754 1.86239,5.32485 1.86239,1.96731 4.53793,1.96731 2.67554,0 4.53792,-1.94108 1.86239,-1.94108 1.86239,-5.29862 0,-3.35754 -1.86239,-5.29862 -1.86238,-1.94108 -4.53792,-1.94108 z"
     id="path9"
     style="stroke-width:0.0524616" />
  <path
     fill="#f5a623"
     d="m 360.17548,346.06532 -8.91847,-12.27601 v 12.27601 h -8.97093 v -38.82157 h 8.97093 v 21.45679 l 8.86601,-11.90878 h 11.06939 l -12.17109,14.68924 12.27601,14.58432 z"
     id="path10"
     style="stroke-width:0.0524616" />
  <!-- MOBILE — 11px, y=235.5, spaced to match SnapStak width -->
  <path
     fill="#ababab"
     d="m 127.46813,386.77201 v 13.50362 h -3.28934 v -8.09832 l -3.02004,8.09832 h -2.65455 l -3.03928,-8.11756 v 8.11756 h -3.28934 v -13.50362 h 3.88565 l 3.78948,9.34866 3.751,-9.34866 z"
     id="path11"
     style="stroke-width:0.0192359" />
  <path
     fill="#ababab"
     d="m 167.22877,393.48535 q 0,-1.9813 0.93294,-3.55865 0.93294,-1.57734 2.5199,-2.46219 1.58697,-0.88486 3.49132,-0.88486 1.90436,0 3.49132,0.88486 1.58696,0.88485 2.50067,2.46219 0.9137,1.57735 0.9137,3.55865 0,1.9813 -0.92332,3.56826 -0.92332,1.58696 -2.50067,2.47181 -1.57734,0.88486 -3.4817,0.88486 -1.90435,0 -3.49132,-0.88486 -1.58696,-0.88485 -2.5199,-2.47181 -0.93294,-1.58696 -0.93294,-3.56826 z m 10.50281,0 q 0,-1.76971 -0.97142,-2.82768 -0.97141,-1.05798 -2.58723,-1.05798 -1.63505,0 -2.60647,1.05798 -0.97141,1.05797 -0.97141,2.82768 0,1.7697 0.97141,2.82768 0.97142,1.05797 2.60647,1.05797 1.61582,0 2.58723,-1.05797 0.97142,-1.05798 0.97142,-2.82768 z"
     id="path12"
     style="stroke-width:0.0192359" />
  <path
     fill="#ababab"
     d="m 231.63061,396.60157 q 0,1.69276 -1.18301,2.68341 -1.18301,0.99065 -3.29896,0.99065 h -6.29015 v -13.50362 h 6.07855 q 2.05825,0 3.22202,0.94256 1.16377,0.94256 1.16377,2.55838 0,1.19263 -0.62517,1.9813 -0.62516,0.78867 -1.6639,1.09645 1.17339,0.25006 1.88512,1.16377 0.71173,0.91371 0.71173,2.0871 z m -7.48277,-4.34732 h 2.15442 q 0.80791,0 1.24071,-0.36548 0.43281,-0.36549 0.43281,-1.05798 0,-0.71173 -0.43281,-1.08683 -0.4328,-0.3751 -1.24071,-0.3751 h -2.15442 z m 4.15495,3.90489 q 0,-0.71173 -0.47128,-1.1253 -0.47128,-0.41357 -1.29842,-0.41357 h -2.38525 v 3.03927 h 2.42372 q 0.82715,0 1.27919,-0.38472 0.45204,-0.38472 0.45204,-1.11568 z"
     id="path13"
     style="stroke-width:0.0192359" />
  <path
     fill="#ababab"
     d="m 274.77501,386.77201 v 13.50362 h -3.28934 v -13.50362 z"
     id="path14"
     style="stroke-width:0.0192359" />
  <path
     fill="#ababab"
     d="m 318.40207,397.77496 h 4.30884 v 2.50067 h -7.59819 v -13.50362 h 3.28935 z"
     id="path15"
     style="stroke-width:0.0192359" />
  <path
     fill="#ababab"
     d="m 365.53006,389.36886 v 2.80845 h 4.40502 v 2.48143 h -4.40502 v 3.02004 h 4.9821 v 2.59685 h -8.27145 v -13.50362 h 8.27145 v 2.59685 z"
     id="path16"
     style="stroke-width:0.0192359" />
</svg>
