<?xml version="1.0" encoding="UTF-8" standalone="no"?>
<svg
   width="100"
   height="128"
   viewBox="0 0 26.458333 33.866666"
   version="1.1"
   id="svg1"
   inkscape:version="1.4 (86a8ad7, 2024-10-11)"
   sodipodi:docname="snapsta-icon.svg"
   xmlns:inkscape="http://www.inkscape.org/namespaces/inkscape"
   xmlns:sodipodi="http://sodipodi.sourceforge.net/DTD/sodipodi-0.dtd"
   xmlns="http://www.w3.org/2000/svg"
   xmlns:svg="http://www.w3.org/2000/svg">
  <sodipodi:namedview
     id="namedview1"
     pagecolor="#ffffff"
     bordercolor="#666666"
     borderopacity="1.0"
     inkscape:showpageshadow="2"
     inkscape:pageopacity="0.0"
     inkscape:pagecheckerboard="0"
     inkscape:deskcolor="#d1d1d1"
     inkscape:document-units="mm"
     inkscape:zoom="0.72604518"
     inkscape:cx="265.13502"
     inkscape:cy="409.75412"
     inkscape:window-width="1920"
     inkscape:window-height="1017"
     inkscape:window-x="-8"
     inkscape:window-y="-8"
     inkscape:window-maximized="1"
     inkscape:current-layer="layer1" />
  <defs
     id="defs1" />
  <g
     inkscape:label="Layer 1"
     inkscape:groupmode="layer"
     id="layer1">
    <g
       transform="matrix(0.27267332,0,0,0.27267332,-0.43405897,0.34904479)"
       id="g2">
      <!-- TOP SHELL - Mustard Yellow -->
      <path
         d="M 50,5 C 20,5 10,30 10,45 v 5 q 15,-8 30,5 10,8 20,0 15,-13 30,-5 V 45 C 90,30 80,5 50,5 Z"
         fill="#F5A623"
         id="path1" />
      <!-- BOTTOM SHELL - White with mustard yellow border -->
      <path
         d="M 50,115 C 30,115 10,100 10,85 V 66 q 15,-8 30,5 10,8 20,0 15,-13 30,-5 v 19 c 0,15 -20,30 -40,30 z"
         fill="#ffffff"
         stroke="#F5A623"
         stroke-width="3"
         id="path2" />
    </g>
  </g>
</svg>
