<?xml version="1.0" encoding="UTF-8" standalone="no"?>
<svg
   viewBox="0 0 512 512"
   width="512"
   height="512"
   version="1.1"
   id="svg16"
   xmlns="http://www.w3.org/2000/svg"
   xmlns:svg="http://www.w3.org/2000/svg">
  <defs
     id="defs16" />
  <!-- Dark background -->
  <!-- Icon: top=52.5, perfectly centred with all content -->
  <g
     transform="matrix(2.690583,0,0,2.690583,120.43541,96.342392)"
     id="g2">
    <path
       d="M 50,5 C 20,5 10,30 10,45 v 5 q 15,-8 30,5 10,8 20,0 15,-13 30,-5 V 45 C 90,30 80,5 50,5 Z"
       fill="#f5a623"
       id="path1" />
    <path
       d="M 50,115 C 30,115 10,100 10,85 V 66 q 15,-8 30,5 10,8 20,0 15,-13 30,-5 v 19 c 0,15 -20,30 -40,30 z"
       fill="#ffffff"
       stroke="#f5a623"
       stroke-width="3"
       id="path2" />
  </g>
  <!-- Snap — white, 30px, y=204.5 -->
  <!-- MOBILE — 11px, y=235.5, spaced to match SnapStak width -->
</svg>
